<!--
// OTAgo
// - OTA App Distribution System
// - Copyright 2020 Dave Wood, Cerebral Gardens Inc.
-->
<svg id="Layer_1" data-name="Layer 1" xmlns="http://www.w3.org/2000/svg" viewBox="0 0 1024 1024">
<title>icon-mask dw2019</title>
<g id="a">
<g id="b">
<g id="c">
<path d="M1024,320.28V283.74c0-10.24-.34-20.48-.34-31.07-.69-22.53-2-45.07-5.81-67.26-4.09-22.54-10.58-43.37-21.17-63.85a214.09,214.09,0,0,0-94.24-94.24C882,16.73,861.13,10.24,838.59,6.15,816.4,2.05,793.86.68,771.33.34,761.09,0,750.84,0,740.26,0H283.74c-10.24,0-20.48.34-31.07.34C230.14,1,207.6,2.39,185.41,6.15,162.87,10.24,142,16.73,121.55,27.32a214.14,214.14,0,0,0-94.23,94.24C16.73,142,10.24,162.87,6.15,185.41,2.05,207.6.68,230.14.34,252.67,0,262.91,0,273.16,0,283.74V740.26c0,10.24.34,20.48.34,31.07C1,793.87,2.39,816.4,6.15,838.59c4.09,22.54,10.58,43.37,21.17,63.85a214.14,214.14,0,0,0,94.23,94.24c20.49,10.59,41.32,17.08,63.86,21.17,22.19,4.1,44.73,5.47,67.26,5.81,10.24.34,20.49.34,31.07.34H740.26c10.24,0,20.48-.34,31.07-.34,22.53-.68,45.07-2,67.26-5.81,22.54-4.09,43.37-10.58,63.85-21.17a214.23,214.23,0,0,0,94.24-94.24c10.59-20.48,17.08-41.31,21.17-63.85,4.1-22.19,5.47-44.72,5.81-67.26.34-10.24.34-20.49.34-31.07v-420Z" style="fill:#000;fill-rule:evenodd"/>
</g>
</g>
</g>
</svg>
